<?xml version="1.0" encoding="utf-8"?>
<!-- Generator: Adobe Illustrator 16.0.0, SVG Export Plug-In . SVG Version: 6.00 Build 0)  -->
<!DOCTYPE svg PUBLIC "-//W3C//DTD SVG 1.1//EN" "http://www.w3.org/Graphics/SVG/1.1/DTD/svg11.dtd">
<svg version="1.1" id="Ebene_1" xmlns="http://www.w3.org/2000/svg" xmlns:xlink="http://www.w3.org/1999/xlink" x="0px" y="0px"
	 width="1190.55px" height="841.89px" viewBox="0 0 1190.55 841.89" enable-background="new 0 0 1190.55 841.89"
	 xml:space="preserve">
<g>
	<g>
		<path d="M519.696,150.549c7.626,21.681-11.132,55.674,16.996,67.386c101.978,17.595,220.951-20.5,307.694,32.83
			c23.442,22.844,41.019,49.228,52.17,77.356v-12.893c-12.893-35.754-39.277-66.224-64.48-97.293
			c7.045-9.369,15.234,1.762,22.28,4.703c25.783,32.232,52.151,65.043,62.121,103.72c1.761,2.353,5.273,7.047,8.206,2.942
			l4.104-4.104c-8.787-41.618-35.175-75.611-57.436-111.365c9.961-6.447,19.92,4.702,28.128,11.148
			c16.997,28.128,35.755,56.255,42.198,89.067c4.685,3.523,10.552-2.924,12.894-7.028c-3.522-25.784-12.311-48.646-22.86-70.328
			c1.77-2.924,1.77-7.026,5.864-7.026c25.204,13.474,24.605,42.78,33.401,65.643c8.217-0.599,12.302-26.385,22.855-11.151
			c3.522,9.389-14.064,24.043,4.103,25.206c-8.789,42.201-55.092,75.03-95.534,84.401c-21.088,4.684-49.227,11.131-65.041-5.266
			c2.924-7.627,13.474-8.79,21.1-9.97c46.886-1.761,91.427-18.756,119.555-56.272l-1.179-1.163
			c-44.544,29.889-99.618,58.615-154.729,36.336c-4.687-1.163-7.027-7.628-4.084-11.132c1.16-3.522-2.353-5.284-4.113-5.866
			c-93.182,4.104-191.073-8.788-281.322,5.876c-9.902,1.601-11.017,10.746-12.891,18.167c-4.741,18.756,7.232,45.329-3.926,55.317
			c0,0-8.236,2.418-14.244-0.243c-1.396-7.777-5.872-51.571,4.098-75.014c12.609-29.663,124.914-19.656,157.37-20.312
			c59.326-1.198,128.642-3.129,184.316,0.974c-15.814-15.833-40.44-16.415-64.462-15.833c-76.193-1.163-195.243-0.769-243.534-3.411
			c-71.415-3.917-96.982,67.892-142.118,114.776h-21.08c28.125-39.277,58.454-84.043,97.272-118.392
			c6.261-5.528,10.625-6.401,21.102-9.37c29.195-8.264,312.378,1.162,312.378,1.162c12.895,2.942,26.967,4.704,39.277,9.97
			c-7.046-18.158-29.878-22.862-48.064-25.205c-101.386-2.924-203.955-0.581-303.591-7.026c-26.946-8.208-41.01-41.62-62.121-62.121
			l-45.125-57.436l22.855,1.163c29.308,33.992,49.404,75.696,87.331,102.558c8.357,5.922,186.914,4.216,281.302,4.104
			c15.227-0.019,46.895,9.969,67.413,21.1c3.504-4.685-2.341-8.79-5.863-12.312c-42.781-41.019-131.034-28.239-162.919-28.126
			c-55.953,0.187-122.534,11.824-168.801-16.997c-11.31-7.046-9.387-49.808-4.103-73.251H519.696"/>
		<path d="M1007.905,330.463c-9.97,42.201-41.021,80.297-80.3,101.396c-24.602,5.285-56.253,21.682-76.193-2.923
			c13.493-12.312,38.099-4.104,53.934-14.073c41.018-11.731,74.788-47.86,95.533-84.4
			C1003.518,328.627,1005.319,326.548,1007.905,330.463"/>
		<path d="M1020.232,366.834c-7.045,36.337-24.622,74.433-62.117,92.61c-16.417,7.608-42.2,16.396-57.437,2.922v-5.865
			c58.016,2.345,87.323-58.596,110.759-99.617C1017.892,356.294,1018.472,362.15,1020.232,366.834"/>
		<path d="M1058.312,506.291c27.604,5.866,54.512-21.68,60.358,14.074c-23.442,12.293-55.091,8.788-79.696,1.742
			c-5.276,10.551,2.341,22.28,0,35.172c-3.522,34.576-16.417,67.406-46.886,88.506c-8.824,4.571-10.662,7.291-15.87,8.208
			c1.572-7.928,2.115-14.391,3.467-19.301c6.04-4.066,32.633-21.14,33.503-43.999c13.476-48.067-1.181-95.533-33.41-130.705
			l21.102-19.339C1013.188,465.271,1027.11,499.658,1058.312,506.291"/>
		<path d="M962.78,474.061c33.992,65.644,2.341,142.416-5.867,209.821c3.523,25.186,7.03,50.989,28.14,68.564
			c-2.352,5.867,1.171,20.52-8.199,16.997c-29.907-15.834-39.857-47.466-39.277-80.297c-1.171-58.014,29.891-104.319,22.264-162.916
			l-5.268-11.149c-24.015,25.784-50.988,58.034-49.227,98.472l-15.835,2.924c-17.578-56.272,43.971-88.522,52.168-138.911
			C941.679,477.565,955.152,472.299,962.78,474.061"/>
	</g>
	<g id="layer1_4_" inkscape:groupmode="layer" inkscape:label="Ebene 1">
		<path d="M741.211,355.573c-0.846,2.699-1.304,5.359-1.275,7.497l0,0c-0.02,3.015,0.861,4.384,1.162,4.552l0,0
			c0.45,0.355,1.011,0.6,3.017,0.637l0,0c0.918,0,2.043-0.094,3.41-0.094l0,0c1.275,0.02,2.812,0.02,4.892,0.733l0,0
			c2.043,0.636,4.609,2.735,5.566,5.246l0,0c0.691,1.648,0.88,3.204,0.88,4.647l0,0c-0.021,2.061-0.375,4.029-0.957,6.333l0,0
			c-0.72,2.83-1.958,5.041-2.866,6.464l0,0c-0.882,1.35-1.256,2.005-1.293,2.098l0,0l0,0c0,0,0,0,0,0.095l0,0
			c0,0.151,0.02,0.431,0.13,0.975l0,0c0.075,0.467,0.562,1.443,1.829,2.978l0,0c1.17,1.556,3.025,3.524,4.601,6.56l0,0
			c1.03,2.005,1.835,4.609,1.835,7.458l0,0c0,0.562-0.036,1.086-0.094,1.667l0,0c-0.543,5.546-3.373,10.27-7.158,13.305l0,0
			c-3.766,3.074-8.394,4.667-13.155,4.667l0,0c-4.573,0.018-9.387-1.574-13.155-5.079l0,0c-1.094-1.05-1.835-2.023-2.706-3.167l0,0
			c-0.854-1.124-1.714-2.361-2.539-3.578l0,0c-1.668-2.494-3.213-4.949-4.029-6.297l0,0c-2.22-3.803-2.831-7.401-3.495-10.204l0,0
			c-0.591-2.839-1.319-4.806-1.657-5.145l0,0c-0.739-1.012-1.274-1.367-1.556-1.516l0,0c-0.281-0.142-0.383-0.188-0.788-0.188l0,0
			c-0.841-0.093-3.354,0.767-6.259,2.511l0,0c-2.943,1.706-6.129,3.992-10.054,5.602l0,0c-2.651,1.068-3.597,1.518-4.111,1.818l0,0
			c-0.507,0.3-1.311,0.918-3.354,2.511l0,0c-1.367,1.05-1.913,1.65-3.168,2.774l0,0c-1.235,1.144-3.54,2.568-5.848,3.185l0,0
			c-1.554,0.45-3.186,0.75-5.265,1.031l0,0c-2.679,0.374-6.109,0.712-9.801,0.712l0,0c-2.978,0-6.126-0.206-9.256-0.899l0,0
			c-3.132-0.693-6.354-1.836-9.258-4.18l0,0c-1.086-0.918-1.725-1.668-2.549-2.624l0,0c-0.797-0.918-1.612-1.967-2.454-3.072l0,0
			c-1.686-2.211-3.391-4.629-4.705-6.616l0,0c-0.909-1.387-1.508-2.267-2.152-3.615l0,0c-1.576-3.431-1.838-6.765-1.817-9.333l0,0
			c0-1.913,0.112-3.524,0.101-4.854l0,0c0-1.462-0.101-2.567-0.402-3.617l0,0c-0.036-0.131-0.076-0.263-0.112-0.375l0,0
			c-0.395-0.167-0.788-0.337-1.162-0.544l0,0c-0.338-0.075-0.721-0.186-1.143-0.281l0,0c-1.126-0.279-2.324-0.599-3.129-0.824l0,0
			c-0.262-0.093-0.395-0.113-0.929-0.297l0,0c-2.079-0.826-3.064-2.1-3.625-2.868l0,0c-0.216-0.338-0.394-0.62-0.545-0.873l0,0
			c-0.279,0.591-0.617,1.593-0.749,2.839l0,0c-0.056,0.6-0.093,1.237-0.093,1.893l0,0c-0.02,2.979,0.711,6.597,1.629,10.681l0,0
			c0.861,4.085,1.911,8.64,1.939,13.737l0,0c0,1.611-0.121,3.259-0.383,4.965l0,0c-1.087,6.596-3.881,13.36-7.234,19.79l0,0
			c-3.371,6.407-7.325,12.367-11.046,16.939l0,0c-2.951,3.56-6.128,5.659-8.404,7.438l0,0c-2.116,1.611-3.447,2.829-4.328,4.291l0,0
			c0.057,0.488,0.186,1.501,0.214,2.98l0,0c0,1.105-0.141,2.491-0.608,3.991l0,0c-1.069,3.073-2.606,5.003-3.861,6.727l0,0
			c-1.274,1.658-2.324,3.093-2.53,3.58l0,0c-0.844,1.705-1.967,3.86-2.828,5.979l0,0c-0.9,2.061-1.388,4.178-1.323,4.628l0,0l0,0
			l0,0c0.008,0.037,0.048,0.111,0.141,0.243l0,0c0.186,0.244,0.58,0.675,1.218,1.218l0,0c1.236,1.105,3.298,2.437,5.519,4.703l0,0
			c1.432,1.519,3.025,3.654,3.756,6.542l0,0c0.431,1.686,0.6,3.39,0.6,5.059l0,0c-0.017,4.365-1.162,8.619-3.073,12.479l0,0
			c-1.947,3.841-4.666,7.364-8.49,9.876l0,0c-2.547,1.668-5.715,2.81-9.163,2.81l0,0c0,0-0.02,0-0.028,0l0,0
			c-2.035,0-4.094-0.41-6.061-1.199l0,0c-0.096,0-0.188-0.019-0.33-0.019l0,0c-1.319-0.037-3.982,0.45-7.055,0.487l0,0
			c-0.937,0-1.938-0.037-3.185-0.317l0,0c-1.219-0.281-2.774-0.807-4.331-2.155l0,0c-2.378-2.005-3.617-5.436-3.504-7.89l0,0
			c0.077-3.223,1.07-5.285,1.742-6.953l0,0c0.639-1.424,1.145-2.604,1.258-2.959l0,0c0.017-0.188,0.017-0.375,0.017-0.562l0,0
			c0.095-4.724-3.073-10.195-7.345-13.175l0,0c-0.037-0.095-1.517-0.75-3.486-1.461l0,0c-1.976-0.806-4.573-1.706-7.215-3.955l0,0
			c-1.742-1.48-3.447-3.841-4.083-6.671l0,0c-0.245-0.955-0.374-1.949-0.374-2.961l0,0c0-4.085,2.097-7.12,3.616-8.807l0,0
			c1.331-1.498,2.481-2.529,2.997-3.094l0,0c-0.018-0.017-0.038-0.035-0.057-0.054l0,0c-0.177-0.095-0.506-0.264-0.993-0.432l0,0
			c-1.984-0.75-6.126-1.124-10.53-1.912l0,0c-6.579-1.256-11.265-2.249-15.761-5.078l0,0c-4.477-2.904-7.215-6.821-10.53-11.955l0,0
			c-1.725-2.643-3.337-4.292-5.437-6.034l0,0c-1.983-1.649-4.505-3.337-7.513-5.641l0,0c-0.113-0.019-0.262-0.074-0.431-0.113l0,0
			c-0.768-0.244-2.043-0.43-3.937-1.366l0,0c-1.215-0.619-2.893-1.781-4.046-3.806l0,0c-1.854-3.484-2.099-6.744-2.136-9.931l0,0
			c0-3.748,0.542-7.476,1.106-10.775l0,0c0.562-3.28,1.162-6.202,1.339-7.608l0,0c0.326-2.437,0.458-4.721,0.458-6.989l0,0
			c0-2.455-0.149-4.911-0.45-7.497l0,0c-1.283,0.433-2.342,0.937-2.812,1.218l0,0c0.395,1.014,0.648,2.155,0.639,3.298l0,0
			c-0.02,2.775-1.238,4.911-2.389,6.316l0,0c-0.461,0.562-0.965,1.013-1.556,1.406l0,0c-1.134,0.749-2.297,1.461-3.495,2.118l0,0
			c-4.103,4.571-9.931,9.837-14.317,13.36l0,0c-2.501,1.948-4.854,2.83-6.737,3.654l0,0c-1.75,0.694-3.137,1.368-3.382,1.557l0,0
			h0.02c-0.02,0.019-0.037,0.019-0.037,0.019l0,0c-0.225,0.205-0.433,0.411-0.619,0.58l0,0c0,0.037,0.02,0.075,0.02,0.113l0,0
			c0.571,0.636,1.424,1.517,2.313,2.622l0,0c0.627,0.844,1.348,1.687,2.032,3.467l0,0c0.639,1.875,0.731,3.187,0.901,4.799l0,0
			c0.132,1.555,0.188,3.221,0.188,4.853l0,0c0,1.518-0.057,2.998-0.152,4.348l0,0c-0.109,1.405-0.194,2.474-0.571,3.992l0,0
			c-0.796,2.847-2.072,5.34-3.645,7.27l0,0c-1.573,1.931-3.306,3.242-4.702,4.18l0,0c-2.839,1.948-4.142,2.622-5.698,4.835l0,0
			c-0.816,1.218-1.05,2.135-1.235,3.935l0,0c-0.189,1.779-0.02,4.291-0.563,7.589l0,0c-0.374,2.174-1.238,4.742-2.904,7.093l0,0
			c-2.082,2.97-4.797,5.088-7.423,6.455l0,0c-2.623,1.388-5.152,2.138-7.344,2.793l0,0c-4.497,1.237-7.327,2.174-8.768,3.71l0,0
			c-1.641,1.649-2.268,2.735-2.803,3.833l0,0c-0.591,1.077-0.853,2.368-2.22,4.656l0,0c-0.881,1.499-2.643,3.278-4.686,4.215l0,0
			c-2.735,1.256-5.293,1.463-8.397,1.481l0,0c-0.898,0-1.854-0.019-2.893-0.074l0,0c-0.535-0.019-2.474-0.113-4.545-0.226l0,0
			c-2.127-0.132-4.246-0.28-6.072-0.562l0,0c-0.599-0.133-1.03-0.133-2.257-0.62l0,0c-3.29-1.366-5.501-3.54-6.925-5.077l0,0
			c-1.5-1.574-2.454-2.642-3.945-3.748l0,0c0,0,0,0-0.084-0.046l0,0c-0.093-0.048-0.225-0.123-0.374-0.217l0,0
			c-0.318-0.177-0.768-0.411-1.263-0.655l0,0c-1.041-0.506-2.353-1.086-3.712-1.63l0,0c-1.302-0.524-2.727-1.013-3.925-1.387l0,0
			c-0.301,0.43-0.6,0.862-0.901,1.292l0,0c-1.01,1.405-2.529,2.399-4.235,2.756l0,0c-1.834,0.374-3.652,0.768-5.49,1.18l0,0
			c-4.629,2.043-9.837,4.647-15.384,6.504l0,0c-7.553,2.51-14.366,3.954-20.238,6.015l0,0c-7.673,2.698-14.872,4.591-22.056,4.609
			l0,0c-6.242,0.037-12.564-1.631-17.925-5.564l0,0c-5.397-3.918-9.668-9.727-13.22-17.373l0,0
			c-2.36-5.116-3.925-9.087-5.406-11.486l0,0c-1.556-2.417-2.39-3.204-4.602-4.16l0,0c-1.519-0.619-3.888-1.124-7.487-1.274l0,0
			c-1.938-0.093-3.756-0.984-5.011-2.474l0,0c-1.236-1.479-1.81-3.429-1.575-5.359l0,0c0.281-2.136,0.807-4.16,1.219-6.053l0,0
			c0.421-1.854,0.674-3.615,0.666-4.104l0,0c0-0.074,0-0.074,0-0.074l0,0c-0.076-0.582-0.123-1.124-0.141-1.632l0,0
			c-0.132-0.093-0.263-0.205-0.413-0.298l0,0c-0.038-0.038-0.038-0.038-0.038-0.038l0,0c0,0,0,0-0.01,0l0,0
			c-0.026,0-0.177-0.057-0.627-0.095l0,0c-0.786-0.13-3.073,0.112-6.184-1.387l0,0c-2.023-0.992-3.812-2.81-4.938-4.759l0,0
			c-1.002-1.799-1.03-2.736-1.189-3.636l0,0c-0.113-0.861-0.13-1.63-0.13-2.417l0,0c0.018-4.179,0.796-9.539,1.46-13.212l0,0
			c0.253-1.236,0.413-2.116,0.778-3.261l0,0c1.237-3.756,3.231-6.54,4.808-8.433l0,0c1.066-1.235,1.863-2.154,2.276-2.66l0,0
			c-0.122-0.151-0.273-0.281-0.413-0.431l0,0c-0.992-1.031-2.37-2.286-3.597-3.522l0,0c-0.853-0.901-1.556-1.462-2.634-3.185l0,0
			c-1.629-2.755-2.417-5.753-2.379-8.266l0,0c0.055-2.679,0.581-4.385,0.674-4.91l0,0c-0.113-0.487-0.206-0.973-0.252-1.516l0,0
			c-0.6-0.038-1.246-0.057-1.903-0.057l0,0c-2.267,0-4.404,0.148-6.089,0.168l0,0c-0.084,0.019-0.197,0.019-0.29,0.019l0,0
			c-0.226,0-0.422,0-0.601,0l0,0c-5.743,0-9.21,0.375-12.265,1.237l0,0c-3.073,0.843-6.109,2.287-10.775,4.965l0,0
			c-0.947,0.525-3.541,2.155-6.183,3.748l0,0c-2.755,1.631-5.454,3.242-8.068,4.311l0,0c-0.815,0.301-1.583,0.619-2.96,0.806l0,0
			c-0.871,0.113-1.678,0.168-2.483,0.168l0,0c-1.592-0.017-3.439-0.168-5.49-1.405l0,0c-1.238-0.73-2.155-1.835-2.774-2.811l0,0
			c-0.328,0.45-0.825,1.181-1.368,2.005l0,0c-0.3,0.45-0.599,0.918-0.917,1.425l0,0c1.713,0.617,3.56,1.611,5.34,3.409l0,0
			c2.08,2.099,3.354,5.435,3.298,8.564l0,0c0,0.654-0.047,1.274-0.122,1.911l0,0c-0.422,3.101-1.856,5.098-3.196,6.69l0,0
			c-1.367,1.601-2.885,2.866-4.44,4.066l0,0c-3.111,2.379-6.541,4.422-9.155,6.127l0,0c-1.713,1.105-3.119,2.154-3.382,2.417l0,0
			c-1.217,1.201-1.705,1.874-2.697,3.035l0,0c-0.918,1.144-2.718,2.868-4.873,3.945l0,0c-1.424,0.739-2.941,1.282-4.779,1.847l0,0
			c-5.208,1.518-17.913,3.99-26.983,4.064l0,0c-2.567-0.074-4.657-0.017-7.619-1.254l0,0c-1.35-0.6-1.621-0.666-2.632-1.106l0,0
			c-0.394-0.243-0.993-0.281-2.474-1.798l0,0c-0.824-0.825-1.883-2.774-1.835-4.723l0,0c0.028-1.537,0.477-2.633,0.806-3.261l0,0
			c0.206-0.376,0.374-0.656,0.505-0.845l0,0c0-0.056,0-0.13,0-0.224l0,0c0-0.037,0-0.132,0.018-0.28l0,0
			c-0.028-1.611-0.618-5.903-0.628-9.633l0,0c0.01-1.311,0.029-2.604,0.403-4.234l0,0c0.639-2.774,1.958-5.323,3.72-7.233l0,0
			c1.733-1.949,3.758-3.205,5.603-4.066l0,0c3.72-1.687,6.887-2.248,8.864-3.055l0,0c1.321-0.524,1.958-0.975,2.324-1.349l0,0
			c0.047-0.039,0.703-0.956,1.303-2.212l0,0c0.618-1.274,1.273-2.904,1.864-4.59l0,0c1.17-3.337,2.07-7.102,2.22-8.564l0,0
			c0.084-0.825,0.141-1.481,0.169-1.947l0,0c-0.843-0.92-2.361-2.643-3.907-5.081l0,0c-2.53-3.841-3.823-8.151-3.805-12.236l0,0
			c0.066-6.222,2.483-11.225,4.882-16.097l0,0c1.349-2.661,2.924-4.646,4.084-6.371l0,0c1.144-1.631,1.808-2.981,1.902-3.411l0,0
			h-0.01c0,0,0.01-0.056,0.01-0.133l0,0c0.084-0.562-0.534-2.453-0.638-5.845l0,0c0-0.881,0.076-1.893,0.328-2.961l0,0
			c1.293-5.266,4.235-9.651,7.702-13.586l0,0c3.485-3.935,7.609-7.458,11.862-10.776l0,0c8.452-6.576,17.606-12.46,22.45-16.864l0,0
			c1.499-1.368,2.83-2.342,3.87-3.018l0,0c0.422-0.271,0.76-0.505,1.04-0.666l0,0c0.159-0.646,0.375-1.844,0.637-3.606l0,0
			c0.318-2.324,0.44-4.816,0.44-7.458l0,0c0-3.016-0.159-6.221-0.159-9.594l0,0c0-2.042,0.057-4.142,0.244-6.296l0,0
			c0.394-4.723,2.043-8.939,4.647-12.125l0,0c2.606-3.186,5.866-5.172,8.985-6.596l0,0c6.25-2.735,12.461-3.822,16.96-5.884l0,0
			c3.026-1.367,5.105-2.868,6.662-5.134l0,0c2.005-2.923,3.091-5.359,4.834-8.47l0,0c1.724-3.111,4.197-6.634,8.199-10.175l0,0
			c6.529-5.716,12.751-9.481,17.005-14.804l0,0c4.15-4.947,9.276-9.295,11-12.293l0,0c0.301-0.431,0.667-1.612,1.021-3.672l0,0
			c0.402-2.006,0.723-4.854,2.569-8.115l0,0c0.307-0.467,0.532-0.805,0.74-1.05l0,0c-1.339-0.242-2.718-0.636-4.15-1.329l0,0
			c-2.916-1.312-5.65-4.386-6.587-7.853l0,0c-0.329-1.143-0.479-2.267-0.479-3.316l0,0c0.028-2.812,0.834-5.021,1.752-7.008l0,0
			c0.918-1.987,2.061-3.785,3.233-5.454l0,0c2.295-3.279,4.844-6.146,6.091-7.664l0,0c1.283-1.593,2.988-2.624,4.244-3.148l0,0
			c-0.093-0.871-0.217-1.986-0.245-3.271l0,0c0-1.021,0.096-2.238,0.507-3.645l0,0c0.402-1.386,1.238-2.997,2.521-4.253l0,0
			c2.015-1.874,3.439-2.174,4.798-2.624l0,0c1.348-0.375,2.65-0.6,4.058-0.769l0,0c2.791-0.318,5.9-0.449,9.029-0.449l0,0
			c2.963,0,5.924,0.112,8.462,0.299l0,0c2.606,0.187,4.592,0.375,6.455,0.806l0,0c2.38,0.562,4.46,1.33,6.334,2.474l0,0
			c1.855,1.124,3.438,2.735,4.441,4.347l0,0c1.958,3.354,2.079,5.621,2.541,6.501l0,0c0.27,0.656,0.383,0.909,0.935,1.462l0,0
			c0,0,0.039,0.057,0.272,0.187l0,0c0.226,0.113,0.599,0.264,1.106,0.412l0,0c0.993,0.282,2.481,0.488,4.094,0.469l0,0
			c2.4,0.02,5.144-0.412,7.319-1.086l0,0c1.609-0.468,2.913-1.18,3.484-1.556l0,0c0.056-0.505,0.076-1.537,0.318-3.204l0,0
			c0.236-1.257,0.712-3.167,2.249-5.022l0,0c2.42-2.698,4.817-3.243,6.278-3.768l0,0c1.182-0.356,2.026-0.617,2.437-0.769l0,0
			c0.029-0.112,0.064-0.281,0.076-0.505l0,0c0.13-0.824,0.065-2.286,0.375-4.498l0,0c0.217-1.442,0.675-3.373,1.987-5.303l0,0
			c1.348-1.8,2.116-2.174,3.073-2.961l0,0c0.937-0.675,1.911-1.312,2.885-1.912l0,0c2.034-1.219,3.748-2.174,5.248-2.848l0,0
			c1.407-0.571,4.686-1.856,8.546-3.093l0,0c3.954-1.181,7.983-2.397,12.227-2.473l0,0c0.889,0,1.826,0.056,2.952,0.318l0,0
			c1.086,0.263,2.454,0.713,3.841,1.874l0,0c1.396,1.162,2.595,2.642,3.354,4.291l0,0c0.796,1.668,1.078,3.41,1.069,4.854l0,0
			c-0.019,0.149-0.019,0.318-0.019,0.469l0,0c1.423-0.582,3.346-1.575,5.498-2.886l0,0c3.816-2.135,8.462-5.248,15.114-5.379l0,0
			c2.035,0,4.199,0.376,6.261,1.181l0,0c3.11,1.2,5.451,2.737,7.016,4.011l0,0c1.443,1.181,2.203,1.873,2.353,1.949l0,0l0,0
			c0.008,0,0,0,0.056,0.018l0,0c0.092,0.019,0.318,0.039,0.74,0.039l0,0c0.777,0,2.276-0.133,4.508-0.581l0,0
			c3.737-0.769,6.5-2.174,9.762-4.179l0,0c3.205-1.987,6.804-4.647,11.542-7.028l0,0c3.337-1.629,6.334-3.147,10.476-3.204l0,0
			c2.333,0,4.553,0.6,6.495,1.424l0,0c1.939,0.824,3.773,1.855,5.928,3.111l0,0c3.057,1.817,5.566,3.654,7.686,4.834l0,0
			c2.153,1.181,3.7,1.669,5.152,1.669l0,0c0.729,0,1.5-0.094,2.511-0.432l0,0c0.337-0.112,0.619-0.226,0.864-0.336l0,0
			c-0.245-0.619-0.659-1.463-1.19-2.437l0,0c-1.604-2.989-3.272-5.546-4.79-8.321l0,0c-1.461-2.735-2.96-5.92-2.997-10.006l0,0
			c-0.019-2.924,0.918-5.94,2.491-8.526l0,0c1.576-2.623,3.692-4.983,6.447-7.477l0,0c4.159-3.767,11.093-9.369,17.635-12.91l0,0
			c2.229-1.182,4.356-2.175,6.914-2.699l0,0c1.106-0.207,2.127-0.281,3.129-0.281l0,0c4.255,0.037,8.47,1.181,12.752,2.811l0,0
			c4.271,1.658,8.422,3.805,11.889,6.427l0,0c2.305,1.798,4.404,3.672,5.96,6.671l0,0c0.213,0.449,0.394,0.899,0.532,1.312l0,0
			c4.114,0.187,6.84,1.78,9.286,3.26l0,0c2.493,1.63,4.312,3.148,5.848,4.985l0,0c2.116,2.773,2.493,5.06,3.017,6.859l0,0
			c0.161,0.694,0.318,1.33,0.479,1.854l0,0c0.683-0.188,1.762-0.582,3.044-1.255l0,0c2.023-0.975,4.311-2.456,7.477-3.505l0,0
			c3.523-1.125,6.99-1.649,10.307-1.649l0,0c9.443,0.057,16.94,3.917,24.38,7.346l0,0c3.766,1.779,9.312,3.842,14.878,6.391l0,0
			c5.565,2.604,11.261,5.603,15.721,10.344l0,0c2.55,2.773,4.114,5.472,5.454,7.571l0,0c1.331,2.116,2.408,3.672,4.029,5.172l0,0
			c0.993,0.918,2.06,1.968,3.148,2.941l0,0c0.673,0.619,1.368,1.2,1.911,1.593l0,0c0.993-0.431,2.454-0.899,4.179-0.899l0,0
			c0.526,0,1.03,0.038,1.5,0.113l0,0c0.017,0,0.057,0.018,0.073,0.018l0,0c0.095-0.037,0.188-0.074,0.301-0.112l0,0
			c0.712-0.262,1.865-0.505,2.904-0.505l0,0c1.686,0.018,2.915,0.43,4.029,0.843l0,0c2.229,0.731,4.524,2.831,5.397,4.741l0,0
			c0.225,0.487,0.41,0.917,0.542,1.293l0,0c0.412,0.168,0.918,0.337,1.461,0.505l0,0c1.593,0.544,3.543,1.105,5.698,2.155l0,0
			c1.416,0.712,3.054,1.649,4.59,3.562l0,0c1.463,1.928,1.857,3.354,2.38,4.928l0,0c0.471,1.536,0.825,3.109,1.106,4.702l0,0
			c0.579,3.187,0.9,6.147,0.9,8.434l0,0c0,0.225,0,0.394,0,0.637l0,0c-0.096,2.023-0.208,3.598-0.603,5.303l0,0
			c-0.354,1.63-1.271,3.728-2.808,5.208l0,0c-0.985,0.993-1.97,1.556-2.643,1.912l0,0c-0.92,0.468-1.407,0.656-1.856,0.899l0,0
			c-0.601,0.338-1.236,0.694-2.306,1.669l0,0c-1.648,1.442-4.018,4.441-6.258,7.861l0,0c-2.248,3.42-4.44,7.262-6.258,10.616l0,0
			c-3.673,6.933-4.892,11-5.06,15.552h-13.887c0.141-7.27,2.417-14.203,6.708-22.111l0,0c1.95-3.616,4.311-7.777,6.896-11.692l0,0
			c2.623-3.955,5.358-7.645,8.563-10.551l0,0c2.043-1.911,4.179-3.147,5.558-3.841l0,0c0.028-0.366,0.045-0.806,0.072-1.275l0,0
			c0-0.094,0-0.15,0-0.187l0,0c0.012-0.675-0.177-2.96-0.531-5.079l0,0c-0.245-1.593-0.655-3.298-0.937-4.197l0,0
			c-0.45-0.206-1.183-0.487-2.044-0.768l0,0c-2.082-0.75-4.637-1.293-7.685-3.224l0,0c-1.367-0.881-2.434-2.21-3.053-3.373l0,0
			c-0.262,0.019-0.523,0.019-0.769,0.019l0,0c-0.413,0-0.844-0.019-1.255-0.056l0,0c-0.92,0.468-2.718,1.256-4.919,1.237l0,0
			c-1.153,0-2.315-0.187-3.383-0.525l0,0c-3.24-1.124-5.022-2.735-6.888-4.271l0,0c-1.771-1.518-3.315-3.055-4.207-3.879l0,0
			c-2.997-2.755-4.891-5.66-6.351-7.955l0,0c-1.464-2.351-2.53-4.076-3.897-5.538l0,0c-2.082-2.322-6.41-4.947-11.357-7.176l0,0
			c-4.927-2.285-10.345-4.271-14.954-6.428l0,0c-7.597-3.616-13.248-6.089-18.476-6.034l0,0c-1.894,0-3.841,0.281-6.072,0.993l0,0
			c-0.861,0.244-2.941,1.388-5.471,2.681l0,0c-2.549,1.236-5.754,2.811-10.062,2.867l0,0c-2.231,0.018-4.742-0.544-6.981-1.781l0,0
			c-2.333-1.312-3.515-3.166-4.227-4.553l0,0c-0.712-1.443-1.066-2.662-1.368-3.766l0,0c-0.056-0.264-0.121-0.525-0.188-0.769l0,0
			c-0.431,1.143-1.179,2.155-2.153,2.942l0,0c-1.452,1.162-3.281,1.667-5.115,1.46l0,0c0,0-0.011,0-0.02,0l0,0
			c-3.374-0.318-6.99-1.873-9.153-4.835l0,0c-2.147-2.921-2.426-5.939-2.426-8.112l0,0c0.037-3.299,0.599-5.903,0.58-6.99l0,0
			c-0.057-0.057-0.093-0.112-0.149-0.168l0,0c-0.321-0.338-0.844-0.807-1.52-1.332l0,0c-1.348-1.011-3.258-2.155-5.321-3.148l0,0
			c-4.074-2.023-9.125-3.354-10.943-3.26l0,0c-0.281,0-0.412,0.019-0.431,0.019l0,0c-0.253,0.02-1.556,0.488-3.056,1.312l0,0
			c-1.537,0.805-3.335,1.949-5.173,3.242l0,0c-3.66,2.53-7.42,5.621-9.668,7.684l0,0c-2.117,1.929-3.335,3.429-3.87,4.348l0,0
			c-0.551,0.955-0.515,1.161-0.515,1.404l0,0c-0.037,0.301,0.168,1.331,1.311,3.392l0,0c1.07,2.005,2.867,4.778,4.798,8.339l0,0
			c1.528,2.998,3.109,5.845,3.222,10.099l0,0c0.076,2.754-1.199,6.091-3.354,8.171l0,0c-2.1,2.116-4.553,3.298-7.308,4.235l0,0
			c-2.341,0.805-4.702,1.198-6.97,1.18l0,0c-4.769,0-8.751-1.669-11.9-3.431l0,0c-3.166-1.779-5.735-3.671-7.983-4.984l0,0
			c-1.958-1.161-3.402-1.929-4.244-2.285l0,0c-0.889-0.357-1.058-0.319-1.134-0.337l0,0c-0.056,0.019-0.244,0-0.937,0.243l0,0
			c-0.684,0.225-1.798,0.73-3.326,1.499l0,0c-3.476,1.725-6.596,3.993-10.429,6.39l0,0c-3.821,2.381-8.45,4.816-14.334,5.997l0,0
			c-2.811,0.562-5.099,0.862-7.263,0.862l0,0c-2.192,0.018-4.375-0.356-6.258-1.18l0,0c-1.883-0.807-3.214-1.894-4.114-2.643l0,0
			c-1.798-1.5-2.172-2.023-4.823-3.148l0,0c-0.47-0.169-0.788-0.226-1.229-0.226l0,0c-1.32-0.112-4.348,1.182-8.113,3.487l0,0
			c-3.796,2.099-8.264,5.229-14.832,5.359l0,0c-0.535,0.018-1.078-0.019-1.677-0.075l0,0c-1.818-0.188-3.411-0.488-5.152-1.209l0,0
			c-1.688-0.702-3.72-2.201-4.798-4.431l0,0c-0.723-1.443-0.928-2.923-0.928-4.048l0,0c0.008-0.824,0.084-1.5,0.205-2.061l0,0
			c-1.432,0.336-3.044,0.787-4.542,1.273l0,0c-3.31,1.049-6.495,2.288-7.311,2.643l0,0c-0.017-0.019-1.545,0.768-2.848,1.556l0,0
			c-0.741,0.43-1.537,0.937-2.116,1.33l0,0c-0.02,0.393-0.056,0.928-0.076,1.574l0,0c-0.133,2.081-0.338,6.034-3.298,9.688l0,0
			c-1.987,2.438-4.423,3.542-6.129,4.179l0,0c-0.785,0.281-1.472,0.487-2.04,0.656l0,0c-0.067,0.901-0.226,2.062-0.63,3.43l0,0
			c-0.459,1.555-1.376,3.373-2.848,4.891l0,0c-2.868,2.904-6.186,4.366-9.781,5.528l0,0c-3.599,1.086-7.505,1.688-11.394,1.688l0,0
			c-2.634,0-5.257-0.264-7.831-0.994l0,0c-2.569-0.712-5.184-1.894-7.44-4.104l0,0c-2.465-2.417-3.796-5.285-4.452-7.29l0,0
			c-0.523-1.725-0.825-2.755-0.937-3.054l0,0c-0.076-0.039-0.188-0.113-0.366-0.188l0,0c-0.365-0.169-0.973-0.394-1.91-0.6l0,0
			c-0.161-0.076-2.051-0.338-4.207-0.47l0,0c-2.192-0.167-4.871-0.262-7.497-0.262l0,0c-2.257,0-4.488,0.075-6.277,0.244l0,0
			c-0.149,0.01-0.319,0.018-0.458,0.038l0,0c0.084,0.805,0.16,1.762,0.196,2.867l0,0c-0.008,1.311-0.132,3.035-1.105,5.06l0,0
			c-1.143,2.473-3.636,4.31-5.246,4.891l0,0c-0.853,0.346-1.463,0.543-1.837,0.637l0,0c-1.359,1.631-3.109,3.654-4.589,5.715l0,0
			c-1.052,1.368-1.874,2.83-2.344,3.841l0,0c0.226,0.019,0.47,0.019,0.749,0.019l0,0c2.746,0.056,6.981-0.899,11.506-0.974l0,0
			c1.48,0.019,3.084,0.113,4.967,0.712l0,0c1.742,0.563,3.889,1.836,5.265,3.917l0,0c0.084,0.113,0.168,0.244,0.245,0.375l0,0
			c1.424,2.305,1.32,5.116,0,7.271l0,0c-0.009,0-0.009,0.018-0.009,0.018l0,0c-0.011,0.01-0.028,0.019-0.028,0.019v0.02
			c-0.011,0.018-0.011,0.037-0.04,0.037l0,0v0.02l0,0c-0.562,0.86-1.311,1.592-2.211,2.154l0,0
			c-0.037,0.018-0.057,0.038-0.093,0.056l0,0c-0.028,0.019-0.037,0.039-0.056,0.039l0,0c-0.008,0.018-0.037,0.018-0.048,0.037l0,0
			c-0.036,0-0.064,0.028-0.084,0.038l0,0c0,0-0.017,0.019-0.037,0.019l0,0c-0.02,0.02-0.037,0.038-0.073,0.038l0,0
			c-0.011,0-0.011,0.018-0.02,0.018l0,0c-0.028,0.02-0.064,0.038-0.104,0.038l0,0c-0.008,0.018-0.008,0.018-0.008,0.018l0,0
			c-0.02,0.02-0.057,0.02-0.076,0.038l0,0c-0.017,0-0.028,0-0.037,0.019l0,0c-0.02,0-0.048,0.02-0.076,0.038l0,0
			c-0.008,0-0.008,0-0.037,0.019l0,0c-0.008,0-0.037,0.02-0.056,0.02l0,0c-0.02,0-0.038,0.018-0.057,0.018l0,0
			c-0.02,0.019-0.037,0.019-0.056,0.039l0,0c-0.009,0-0.037,0-0.057,0.018l0,0c-0.017,0-0.028,0-0.056,0.018l0,0
			c-0.009,0-0.037,0.02-0.045,0.028l0,0c-0.028,0-0.04,0.01-0.048,0.01l0,0c-0.028,0.018-0.056,0.018-0.076,0.038l0,0
			c-0.017,0-0.017,0-0.036,0l0,0c-0.02,0.019-0.048,0.019-0.077,0.037l0,0c-0.008,0-0.008,0-0.036,0l0,0
			c-0.008,0.02-0.048,0.02-0.076,0.038l0,0c-0.008,0-0.017,0-0.017,0l0,0c-0.039,0.018-0.076,0.018-0.095,0.036l0,0
			c-0.009,0-0.017,0-0.017,0l0,0c-0.49,0.15-0.966,0.263-1.48,0.3l0,0c-0.49,0.301-1.162,0.75-1.857,1.257l0,0
			c-1.911,1.349-4.224,3.203-5.901,4.675l0,0c-0.684,0.59-1.322,1.19-1.677,1.527l0,0c-0.208,0.562-0.479,1.649-0.74,3.223l0,0
			c-0.414,2.118-0.881,5.173-2.851,8.452l0,0c-3.813,5.987-9.359,10.326-12.048,13.773l0,0
			c-6.296,7.609-13.464,11.787-18.542,16.415l0,0c-2.867,2.586-4.001,4.273-5.349,6.615l0,0c-1.303,2.305-2.755,5.508-5.445,9.482
			l0,0c-2.538,3.729-5.836,6.409-9.154,8.301l0,0c-3.333,1.894-6.68,3.072-9.801,4.066l0,0c-6.23,1.875-11.392,3.374-13.425,5.267
			l0,0c-1.359,1.255-2.118,2.154-2.512,5.51l0,0c-0.131,1.574-0.197,3.259-0.197,5.059l0,0c0,2.96,0.151,6.184,0.151,9.594l0,0
			c0,2.999-0.113,6.146-0.582,9.426l0,0c-0.412,2.839-0.74,4.797-1.461,6.839l0,0c-0.62,2.024-2.343,4.348-3.841,5.397l0,0
			c-0.975,0.732-1.621,1.088-2.155,1.462l0,0c-0.722,0.468-1.406,0.918-2.522,1.92l0,0c-4.796,4.319-11.046,8.518-17.191,13.014l0,0
			c-6.147,4.442-12.162,9.125-16.022,13.529l0,0c-2.52,2.83-4.038,5.472-4.563,7.497l0,0c0.029,0.58,0.563,2.642,0.647,5.695l0,0
			c0,0.957-0.084,2.025-0.357,3.205l0,0c-0.861,3.562-2.548,6.053-3.954,8.171l0,0c-1.442,2.061-2.679,3.786-3.129,4.759l0,0
			c-2.324,4.535-3.475,7.777-3.411,9.875l0,0c0.019,1.424,0.29,2.643,1.575,4.704l0,0c1.761,2.68,2.174,2.792,3.728,4.647l0,0
			c0.525,0.637,1.2,1.631,1.667,2.811l0,0c0.619,1.593,0.77,3.148,0.77,4.459l0,0c-0.01,1.312-0.13,2.568-0.291,4.179l0,0
			c-0.599,4.853-2.614,11.843-5.406,17.708l0,0c-0.993,1.968-1.986,3.748-3.579,5.509l0,0c-3.636,3.881-7.871,5.079-10.851,6.035
			l0,0c-3.091,0.862-5.125,1.648-5.621,2.137l0,0c-0.328,0.318-0.413,0.279-0.704,1.311l0,0c0,0.019-0.028,0.093-0.028,0.188l0,0
			c-0.018,0.188-0.037,0.506-0.037,0.881l0,0c-0.019,2.38,0.515,6.165,0.618,9.238l0,0c6.54-0.074,19.367-2.492,22.337-3.466l0,0
			c1.331-0.413,2.08-0.731,2.399-0.882l0,0c0.318-0.187,0.207-0.131,0.346-0.243l0,0c0.207-0.112,1.482-1.967,4.001-4.422l0,0
			c1.498-1.425,3.035-2.455,4.722-3.579l0,0c1.677-1.106,3.449-2.212,5.134-3.316l0,0c1.987-1.218,3.861-2.643,5.059-3.674l0,0
			c-0.486-0.112-1.067-0.207-1.667-0.3l0,0c-1.255-0.243-2.586-0.374-4.506-1.068l0,0l-0.122-0.037
			c-1.761-0.638-3.317-2.342-3.842-3.711l0,0c-0.6-1.367-0.618-2.304-0.638-2.959l0,0c0.057-1.688,0.338-2.268,0.535-2.923l0,0
			c0.215-0.619,0.44-1.125,0.684-1.65l0,0c0.478-1.031,1.04-2.081,1.667-3.185l0,0c1.247-2.229,2.737-4.629,4.048-6.587l0,0
			c0.928-1.34,1.603-2.333,2.586-3.42l0,0c0.3-0.319,0.571-0.656,1.424-1.273l0,0c2.137-1.424,2.718-2.025,4.76-3.018l0,0
			c0.713-0.318,1.864-0.693,3.289-0.693l0,0c1.939-0.02,3.449,0.787,3.888,1.03l0,0c0.488,0.282,0.469,0.282,0.488,0.282l0,0h0.019
			c0.056,0.038,0.252,0.094,0.619,0.168l0,0c1.573,0.281,3.391,0.937,4.918,2.287l0,0c0.215,0.206,0.42,0.393,0.627,0.617l0,0
			c0.965-0.504,2.174-1.199,3.411-1.93l0,0c2.885-1.706,5.79-3.56,7.551-4.571l0,0c4.957-2.812,9.126-4.929,13.885-6.26l0,0
			c4.761-1.33,9.708-1.761,16.013-1.741l0,0c0.123,0,0.253,0,0.375,0l0,0c0.084,0,0.159,0,0.226,0l0,0c0.028,0,0.064,0,0.084,0l0,0
			v-0.02c0.692,0.02,3.438-0.15,6.294-0.15l0,0c3.056,0.057,6.242,0,9.97,1.462l0,0c1.247,0.524,2.727,1.312,4.086,2.96l0,0
			c0.636,0.768,1.15,1.481,1.677,2.399l0,0c0.477,0.898,1.114,2.117,1.161,4.196l0,0c0.01,1.144-0.347,2.484-0.843,3.485l0,0
			c0,0.281,0.009,0.545,0.009,0.807l0,0c-0.009,1.8-0.336,3.092-0.505,3.861l0,0c-0.169,0.786-0.187,1.067-0.187,1.18l0,0
			c0.018,0.113-0.076,0.187,0.375,1.068l0,0c0.065,0.039,0.112,0.094,0.168,0.168l0,0c0.318,0.338,0.862,0.843,1.462,1.424l0,0
			c1.199,1.18,2.688,2.548,4.048,4.122l0,0c0.909,1.163,1.892,2.005,2.745,4.798l0,0c0.318,1.217,0.477,2.455,0.477,3.71l0,0
			c0.048,2.511-0.787,4.929-1.798,6.616l0,0c-1.012,1.706-2.043,2.847-2.876,3.802l0,0c-1.677,1.932-2.634,3.019-3.382,5.172l0,0
			h0.019c-0.019,0.058-0.057,0.17-0.075,0.3l0,0c-0.076,0.282-0.151,0.694-0.235,1.163l0,0c-0.197,0.955-0.403,2.191-0.571,3.485
			l0,0c-0.271,1.874-0.506,3.954-0.591,5.547l0,0c0.517,0.037,1.134,0.132,1.836,0.262l0,0c1.659,0.318,3.739,1.105,5.576,2.474l0,0
			c0.806,0.619,1.33,0.919,1.546,1.05l0,0c0.122,0.037,0.272,0.074,0.477,0.148l0,0c0.488,0.263,1.715,0.489,3.299,2.568l0,0
			c0.777,1.068,1.255,2.68,1.217,3.955l0,0c-0.056,1.272-0.281,2.098-0.524,2.661l0,0c0.009,0.3,0.047,0.729,0.094,1.328l0,0
			c0.056,0.507,0.074,0.994,0.074,1.481l0,0c-0.019,1.874-0.281,3.542-0.581,5.114l0,0c1.387,0.32,2.697,0.714,3.955,1.22l0,0
			c3.484,1.33,6.428,3.486,8.6,5.996l0,0c4.331,5.135,6.016,10.569,8.94,16.734l0,0c2.904,6.259,5.912,9.914,8.768,11.974l0,0
			c2.896,2.042,5.755,2.887,9.785,2.924l0,0c4.553,0.02,10.473-1.35,17.455-3.822l0,0c7.063-2.455,13.875-3.88,20.436-6.092l0,0
			c4.468-1.479,9.632-4.028,14.869-6.332l0,0l1.246-0.395c1.199-0.279,2.398-0.542,3.616-0.807l0,0
			c0.487-0.72,0.957-1.46,1.444-2.209l0,0c0.937-1.519,2.409-2.587,4.102-3.037l0,0c1.089-0.271,1.866-0.3,2.502-0.3l0,0
			c3.121,0.075,5.481,0.862,8.292,1.761l0,0c2.719,0.92,5.473,2.062,7.75,3.149l0,0c1.564,0.749,2.783,1.386,4.111,2.323l0,0
			c2.851,2.061,4.668,4.179,5.859,5.416l0,0c0.934,0.975,1.356,1.348,1.79,1.612l0,0c0.129,0.019,0.261,0.036,0.43,0.056l0,0
			c0.768,0.074,1.854,0.149,2.96,0.226l0,0c2.212,0.148,4.478,0.241,5.229,0.28l0,0c0.861,0.037,1.592,0.056,2.209,0.056l0,0
			c0.732,0.019,1.303-0.019,1.705-0.056l0,0c0.76-1.837,2.533-6.185,6.644-10.139l0,0c3.72-3.653,8.031-5.172,11.421-6.222l0,0
			c3.467-1.028,6.25-1.723,7.964-2.659l0,0c1.154-0.638,1.857-1.201,2.558-2.174l0,0c0.292-0.432,0.422-0.75,0.571-1.537l0,0
			c0.152-0.788,0.208-2.007,0.264-3.616l0,0c0.093-3.148,0.319-8.396,3.785-13.379l0,0c2.454-3.562,5.397-5.772,7.485-7.159l0,0
			c2.127-1.424,3.12-2.118,3.562-2.699l0,0c0.317-0.411,0.644-0.898,1.001-2.117l0,0c0-0.019,0-0.019,0-0.019l0,0
			c0.009-0.038,0.02-0.133,0.037-0.245l0,0c0.039-0.28,0.084-0.673,0.124-1.142l0,0c0.064-0.918,0.101-2.118,0.101-3.336l0,0
			c0.02-1.762-0.129-3.729-0.242-4.648l0,0c-0.169-0.204-0.414-0.468-0.676-0.767l0,0c-0.824-0.975-1.762-1.743-3.017-3.729l0,0
			c-0.329-0.655-0.864-1.424-1.105-3.176l0,0c-0.177-1.04,0.017-0.234-0.62-1.864l0,0c-0.205-0.562-0.562-1.631-0.562-3.055l0,0
			c-0.028-1.387,0.414-2.848,0.92-3.805l0,0c0.504-0.973,1.03-1.593,1.498-2.171l0,0c0.957-1.098,1.941-2.006,3.41-3.375l0,0
			c2.69-2.398,5.099-3.185,7.103-4.085l0,0c1.987-0.787,3.543-1.574,3.824-1.835l0,0c3.981-3.168,10.268-8.958,13.312-12.538l0,0
			c0.422-0.504,0.917-0.937,1.472-1.292l0,0c-0.245-1.461,0-2.998,0.749-4.384l0,0c0.076-0.245,0.225-0.713,0.45-1.312l0,0
			c0.526-1.424,1.601-3.504,3.334-5.36l0,0c3.104-3.204,6.447-4.309,9.54-5.359l0,0c3.092-0.955,6.072-1.519,8.003-1.94l0,0
			c1.854-0.421,3.805-0.047,5.377,1.021l0,0c1.573,1.069,2.643,2.736,2.96,4.61l0,0c0.957,5.791,1.724,11.281,1.724,17.184l0,0
			c0,2.847-0.168,5.771-0.582,8.844l0,0c-0.317,2.324-0.917,5.059-1.424,8.077l0,0c-0.506,2.96-0.909,6.09-0.898,8.451l0,0
			c-0.011,0.674,0.037,1.274,0.093,1.762l0,0c1.066,0.28,2.623,0.73,4.629,2.154l0,0c2.735,2.098,5.453,3.898,8.301,6.239l0,0
			c2.828,2.325,5.715,5.268,8.262,9.221l0,0c3.177,4.966,4.837,6.839,6.354,7.776l0,0c1.5,1.021,4.424,1.949,10.811,3.129l0,0
			c2.457,0.47,5.642,0.75,9.033,1.481l0,0c3.317,0.75,7.327,1.837,10.634,5.585l0,0c2.184,2.474,3.346,6.015,3.289,9.406l0,0
			c0,0.375-0.017,0.73-0.037,1.086l0,0c-0.113,2.174-0.9,4.066-1.742,5.397l0,0c-0.844,1.35-1.725,2.287-2.465,3.072l0,0
			c-0.684,0.656-1.266,1.237-1.696,1.67l0,0c0.149,0.074,0.317,0.148,0.498,0.224l0,0c1.798,0.882,4.674,1.443,8.104,3.748l0,0
			c7.553,5.415,13.099,14.261,13.192,24.493l0,0c0,0.523-0.02,1.066-0.056,1.648l0,0c-0.189,2.209-0.769,3.71-1.294,4.947l0,0
			c0.799-0.075,1.64-0.103,2.521-0.132l0,0c1.415,0.036,3.028,0.074,5.051,0.833l0,0c0.132,0.049,0.282,0.104,0.422,0.16l0,0l0,0
			l0,0c0.419,0.188,0.701,0.234,0.945,0.234l0,0c0.375,0,0.844-0.104,1.612-0.592l0,0c0.729-0.467,1.649-1.347,2.482-2.51l0,0
			c1.678-2.324,2.783-5.809,2.747-8.188l0,0c0-0.619-0.067-1.162-0.152-1.573l0,0c-0.017-0.039-0.056-0.076-0.093-0.132l0,0
			c-0.188-0.226-0.619-0.676-1.292-1.219l0,0c-1.312-1.144-3.506-2.567-5.735-5.022l0,0c-1.472-1.611-2.989-3.896-3.636-6.755l0,0
			c-0.245-1.115-0.337-2.128-0.337-3.063l0,0c0.056-3.88,1.218-7.009,2.361-9.896l0,0c1.182-2.847,2.493-5.376,3.261-6.914l0,0
			c1.911-3.617,4.235-5.978,5.173-7.607l0,0c0.177-0.281,0.298-0.487,0.354-0.619l0,0c-0.017-0.394-0.186-1.442-0.213-3.185l0,0
			c-0.011-1.481,0.252-3.618,1.339-5.642l0,0c2.37-4.497,5.752-7.289,8.434-9.331l0,0c2.735-2.062,4.795-3.562,6.089-5.192l0,0
			c3.017-3.69,6.596-9.069,9.52-14.616l0,0c2.924-5.546,5.161-11.394,5.808-15.534l0,0c0.133-0.899,0.209-1.818,0.209-2.772l0,0
			c0.027-3.075-0.715-6.709-1.613-10.776l0,0c-0.88-4.085-1.93-8.602-1.949-13.642l0,0c0-1.124,0.056-2.248,0.188-3.392l0,0
			c0.402-3.672,1.517-7.309,3.99-10.474l0,0c2.38-3.187,6.708-5.603,11.301-5.509l0,0c1.479,0,2.96,0.205,4.403,0.599l0,0
			c1.694,0.441,3.109,1.388,4.047,2.325l0,0c0.957,0.937,1.499,1.835,1.922,2.565l0,0c0.084,0.168,0.157,0.318,0.242,0.487l0,0
			c0.929,0.226,1.846,0.47,2.015,0.488l0,0l0,0c0.47,0.112,0.938,0.243,1.387,0.449l0,0c0.149-0.019,0.338-0.019,0.507-0.019l0,0
			c0.957-0.018,2.229,0.226,3.262,0.75l0,0c1.066,0.525,1.826,1.219,2.321,1.798l0,0c0.993,1.191,1.274,1.951,1.593,2.642l0,0
			c0.546,1.331,0.909,2.624,1.547,4.816l0,0c0.777,2.755,0.946,5.303,0.946,7.421l0,0c-0.02,1.948-0.113,3.578-0.113,4.854l0,0
			c0.012,1.705,0.149,2.624,0.544,3.505l0,0c0.02,0.036,0.057,0.093,0.093,0.148l0,0c0.112,0.197,0.293,0.469,0.489,0.806l0,0
			c0.411,0.674,1.002,1.537,1.649,2.474l0,0c1.312,1.892,2.903,4.066,4.195,5.697l0,0c0.788,0.973,1.557,1.817,1.688,1.93l0,0
			c0,0.019,0.017,0.019,0.017,0.019l0,0h-0.017c0.486,0.374,1.666,0.956,3.354,1.311l0,0c1.778,0.375,4.01,0.563,6.295,0.563l0,0
			c2.831,0,5.715-0.263,7.89-0.582l0,0c1.444-0.187,2.418-0.394,2.989-0.524l0,0c0.57-0.151,0.683-0.226,0.683-0.226l0,0
			c0,0,0,0,0.057-0.037l0,0c0.093-0.076,0.395-0.337,0.9-0.826l0,0c0.685-0.636,1.723-1.593,3.109-2.66l0,0
			c1.857-1.405,2.944-2.324,4.686-3.392l0,0c1.742-1.03,3.374-1.706,6.072-2.772l0,0c1.666-0.638,4.759-2.662,8.245-4.723l0,0
			c3.54-1.987,7.682-4.329,13.229-4.404l0,0c2.4-0.019,5.043,0.563,7.403,1.855l0,0c2.378,1.294,4.421,3.204,6.126,5.51l0,0
			c2.662,3.747,3.298,7.382,4.01,10.305l0,0c0.639,2.942,1.274,5.248,1.857,6.108l0,0c0.616,1.032,1.967,3.188,3.354,5.267l0,0
			c1.36,2.042,2.941,4.197,3.468,4.741l0,0c0.045,0.057,0.045,0.057,0.056,0.057l0,0c0.938,0.88,2.153,1.329,3.652,1.349l0,0
			c1.537,0,3.226-0.58,4.404-1.556l0,0c1.171-0.994,1.894-2.135,2.1-3.898l0,0c0.02-0.148,0.028-0.243,0.028-0.317l0,0
			c-0.028-0.375-0.064-0.601-0.348-1.182l0,0c-0.281-0.562-0.853-1.404-1.724-2.454l0,0c-1.593-2.135-4.629-5.115-5.864-10.344l0,0
			c-0.302-1.35-0.459-2.679-0.459-3.992l0,0c-0.075-3.878,1.77-7.112,2.791-8.582l0,0c0.908-1.424,1.303-2.005,1.649-3.055l0,0
			c-0.064,0-0.121,0-0.197,0l0,0c-2.98,0.019-7.851-0.394-12.05-3.992l0,0c-4.701-4.104-5.996-9.855-6.016-15.083l0,0
			c0.02-2.494,0.301-5.003,0.824-7.497H741.211z M578.46,457.046L578.46,457.046L578.46,457.046L578.46,457.046z M578.517,456.783
			C578.528,456.783,578.528,456.783,578.517,456.783L578.517,456.783L578.517,456.783z M164.245,293.191L164.245,293.191
			L164.245,293.191L164.245,293.191z M250.191,165.766L250.191,165.766L250.191,165.766L250.191,165.766z M666.892,158.458
			L666.892,158.458L666.892,158.458L666.892,158.458L666.892,158.458z M257.124,155.234L257.124,155.234L257.124,155.234
			L257.124,155.234L257.124,155.234L257.124,155.234z M286.214,142.791L286.214,142.791L286.214,142.791L286.214,142.791
			L286.214,142.791L286.214,142.791z M253.995,141.686v-0.019l0,0V141.686L253.995,141.686z M373.588,122.404L373.588,122.404
			L373.588,122.404L373.588,122.404L373.588,122.404L373.588,122.404z M410.906,116.144L410.906,116.144L410.906,116.144
			L410.906,116.144z"/>
	</g>
</g>
</svg>
